HIERARCHY
ROOT Hips
{
	OFFSET 0.00000 0.00000 0.00000
	CHANNELS 6 Xposition Yposition Zposition Zrotation Yrotation Xrotation 
	JOINT LHipJoint
	{
		OFFSET 0 0 0
		CHANNELS 3 Zrotation Yrotation Xrotation
		JOINT LeftUpLeg
		{
			OFFSET 1.57358 -1.76629 0.73362
			CHANNELS 3 Zrotation Yrotation Xrotation
			JOINT LeftLeg
			{
				OFFSET 2.40600 -6.61045 0.00000
				CHANNELS 3 Zrotation Yrotation Xrotation
				JOINT LeftFoot
				{
					OFFSET 2.66168 -7.31291 0.00000
					CHANNELS 3 Zrotation Yrotation Xrotation
					JOINT LeftToeBase
					{
						OFFSET 0.20870 -0.57341 2.12506
						CHANNELS 3 Zrotation Yrotation Xrotation
						End Site
						{
							OFFSET 0.00000 -0.00000 1.10557
						}
					}
				}
			}
		}
	}
	JOINT RHipJoint
	{
		OFFSET 0 0 0
		CHANNELS 3 Zrotation Yrotation Xrotation
		JOINT RightUpLeg
		{
			OFFSET -1.49299 -1.76629 0.73362
			CHANNELS 3 Zrotation Yrotation Xrotation
			JOINT RightLeg
			{
				OFFSET -2.43663 -6.69460 0.00000
				CHANNELS 3 Zrotation Yrotation Xrotation
				JOINT RightFoot
				{
					OFFSET -2.62959 -7.22474 0.00000
					CHANNELS 3 Zrotation Yrotation Xrotation
					JOINT RightToeBase
					{
						OFFSET -0.25784 -0.70841 2.21862
						CHANNELS 3 Zrotation Yrotation Xrotation
						End Site
						{
							OFFSET -0.00000 -0.00000 1.16452
						}
					}
				}
			}
		}
	}
	JOINT LowerBack
	{
		OFFSET 0 0 0
		CHANNELS 3 Zrotation Yrotation Xrotation
		JOINT Spine
		{
			OFFSET -0.00034 2.12399 -0.25450
			CHANNELS 3 Zrotation Yrotation Xrotation
			JOINT Spine1
			{
				OFFSET 0.05594 2.14379 -0.03318
				CHANNELS 3 Zrotation Yrotation Xrotation
				JOINT Neck
				{
					OFFSET 0 0 0
					CHANNELS 3 Zrotation Yrotation Xrotation
					JOINT Neck1
					{
						OFFSET -0.09835 1.62725 0.24211
						CHANNELS 3 Zrotation Yrotation Xrotation
						JOINT Head
						{
							OFFSET 0.10849 1.66041 -0.22648
							CHANNELS 3 Zrotation Yrotation Xrotation
							End Site
							{
								OFFSET 0.04385 1.68267 -0.10541
							}
						}
					}
				}
				JOINT LeftShoulder
				{
					OFFSET 0 0 0
					CHANNELS 3 Zrotation Yrotation Xrotation
					JOINT LeftArm
					{
						OFFSET 3.29108 0.79398 -0.68179
						CHANNELS 3 Zrotation Yrotation Xrotation
						JOINT LeftForeArm
						{
							OFFSET 5.15310 -0.00000 -0.00000
							CHANNELS 3 Zrotation Yrotation Xrotation
							JOINT LeftHand
							{
								OFFSET 3.75138 -0.00000 -0.00000
								CHANNELS 3 Zrotation Yrotation Xrotation
								JOINT LeftFingerBase
								{
									OFFSET 0 0 0
									CHANNELS 3 Zrotation Yrotation Xrotation
									JOINT LeftHandIndex1
									{
										OFFSET 0.52917 -0.00000 0.00000
										CHANNELS 3 Zrotation Yrotation Xrotation
										End Site
										{
											OFFSET 0.42663 -0.00000 0.00000
										}
									}
								}
								JOINT LThumb
								{
									OFFSET 0 0 0
									CHANNELS 3 Zrotation Yrotation Xrotation
									End Site
									{
										OFFSET 0.43315 -0.00000 0.43315
									}
								}
							}
						}
					}
				}
				JOINT RightShoulder
				{
					OFFSET 0 0 0
					CHANNELS 3 Zrotation Yrotation Xrotation
					JOINT RightArm
					{
						OFFSET -3.07414 1.06285 -0.44338
						CHANNELS 3 Zrotation Yrotation Xrotation
						JOINT RightForeArm
						{
							OFFSET -5.29613 -0.00000 0.00000
							CHANNELS 3 Zrotation Yrotation Xrotation
							JOINT RightHand
							{
								OFFSET -3.76144 -0.00000 -0.00000
								CHANNELS 3 Zrotation Yrotation Xrotation
								JOINT RightFingerBase
								{
									OFFSET 0 0 0
									CHANNELS 3 Zrotation Yrotation Xrotation
									JOINT RightHandIndex1
									{
										OFFSET -0.74732 -0.00000 0.00000
										CHANNELS 3 Zrotation Yrotation Xrotation
										End Site
										{
											OFFSET -0.60251 -0.00000 0.00000
										}
									}
								}
								JOINT RThumb
								{
									OFFSET 0 0 0
									CHANNELS 3 Zrotation Yrotation Xrotation
									End Site
									{
										OFFSET -0.61171 -0.00000 0.61171
									}
								}
							}
						}
					}
				}
			}
		}
	}
}
MOTION
Frames: 14
Frame Time: 0.0606061
0.00 0.00 0.00 0 0 0 0 0 0 -21 0 0 0 0 0 0 0 0 0 0 0 0 0 0 21 0 0 0 0 0 0 0 0 0 0 0 0 0 0 0 0 0 0 0 0 0 0 -16 0 0 21 0 0 11 0 0 0 -8 0 0 0 0 0 0 0 0 0 0 0 0 0 0 0 0 0 0 0 0 8 0 0 0 0 0 0 0 0 0 0 0 0 0 0 0 0 0
0.00 0.00 0.00 -1.2443 -3.0173 -3.6652 0.0000 0.0000 0.0000 -17.1164 -12.4924 -33.7095 11.4706 18.1578 64.3006 0.3708 -1.8589 -11.0076 1.0718 -6.5810 -18.4800 0.0000 0.0000 0.0000 23.7168 3.0110 -16.4807 -8.8607 -16.7173 55.6073 -0.6689 -4.0106 -17.4232 -1.4396 7.5855 -21.4620 0.4810 -1.9016 11.9549 3.9234 -2.2577 1.7020 4.2069 -1.0968 -4.7741 -11.1460 -0.4034 -8.7140 2.7207 0.6789 14.6093 2.7359 -0.0793 5.8290 -0.0000 0.0000 0.0000 -87.5355 28.5373 35.9791 69.9125 -58.4191 -42.6960 -0.0000 0.0000 -15.9113 21.6166 6.4585 2.5522 -7.1250 0.0000 -0.0000 -4.3470 36.8918 0.8691 -0.0000 0.0000 0.0000 73.9033 -15.3024 55.2031 -124.3300 55.0412 -89.2356 0.0000 -0.0000 -11.5908 -17.4671 27.2392 -8.1957 7.1250 -0.0000 -0.0000 7.5503 -1.8391 7.3690
0.00 0.00 0.00 -0.7465 -1.9562 -4.2336 0.0000 0.0000 0.0000 -19.1892 -14.2204 -33.3144 7.1621 15.4669 49.4847 0.2150 -0.9959 -8.4621 0.8049 -5.7258 -15.9910 0.0000 0.0000 0.0000 20.7383 1.0163 -15.8651 -10.7638 -17.8176 62.0121 -0.0476 -0.7562 -4.4732 -1.4357 7.5756 -21.4324 -1.8777 -1.1988 15.2640 5.5973 -1.4313 -0.3608 7.4990 -0.4617 -8.8006 -12.6420 -0.5012 -6.3215 1.9721 0.5610 15.8560 2.7339 -0.3280 5.8402 0.0000 -0.0000 0.0000 -90.0375 36.5598 37.9590 78.5545 -59.4992 -50.1046 -0.0000 0.0000 -18.7353 20.9949 5.9739 2.2872 -7.1250 0.0000 -0.0000 -4.8215 36.3389 1.0298 0.0000 -0.0000 0.0000 69.3120 -17.3546 55.6339 -132.1666 52.0834 -95.5458 0.0000 -0.0000 -18.6515 -20.9323 45.5929 -15.2834 7.1250 -0.0000 -0.0000 8.6059 17.1089 10.8576
0.00 0.00 0.00 0.2345 -2.6450 -6.1915 0.0000 0.0000 0.0000 -22.8214 -10.2116 -28.9027 2.5972 10.0126 29.0176 0.0719 0.9284 4.8212 0.4410 -4.2609 -11.8118 0.0000 0.0000 0.0000 16.4645 0.9265 -15.7210 -13.3435 -18.9027 70.1892 -0.4027 2.3908 13.1013 -0.0327 -1.1677 3.2103 -0.6384 0.2996 12.4705 3.4310 0.4627 3.1666 3.8835 0.2356 -3.7017 -10.0824 -1.7602 -7.3865 3.1066 -1.5207 14.7136 2.5266 -1.0691 5.7781 -0.0000 -0.0000 0.0000 -82.9087 37.0092 43.3237 88.0885 -59.9862 -58.3447 -0.0000 0.0000 -19.9291 20.0019 5.1675 1.8778 -7.1250 0.0000 -0.0000 -5.5683 35.4321 1.3140 -0.0000 -0.0000 0.0000 73.1221 -14.5587 51.4507 -138.9394 48.6858 -100.7679 0.0000 -0.0000 -14.9386 -15.6298 40.0952 -10.2143 7.1250 -0.0000 -0.0000 10.1359 10.6164 12.0011
0.00 0.00 0.00 -1.1765 -1.4830 -8.6567 0.0000 0.0000 0.0000 -24.6455 -8.0452 -25.1437 1.8094 8.4572 24.1117 0.6144 7.8934 14.1976 0.1598 2.5756 7.0993 0.0000 0.0000 0.0000 14.3232 -0.8298 -21.2341 -16.8056 -19.7536 80.6233 0.2520 -8.9763 -1.7479 -0.1619 -2.5920 7.1449 -0.1557 1.2777 16.3370 3.9109 1.8949 3.7850 3.8530 0.9475 -5.2554 -8.2169 -3.2996 -13.6326 2.3836 -3.2042 19.2492 1.7972 -1.8708 8.4239 0.0000 -0.0000 0.0000 -79.3014 36.5807 47.5812 93.2709 -59.9595 -62.8323 -0.0000 0.0000 -16.0481 19.1991 2.5855 0.8999 -7.1250 0.0000 -0.0000 -5.9872 32.6773 1.8156 0.0000 -0.0000 0.0000 76.3792 -17.0294 45.7792 -140.7738 47.6047 -102.1344 0.0000 -0.0000 -11.5623 -19.4695 28.9341 -9.7056 7.1250 -0.0000 -0.0000 6.5435 0.2300 6.6129
0.00 0.00 0.00 -2.1739 -1.3410 -10.3520 0.0000 0.0000 0.0000 -24.6825 -6.7682 -26.8015 4.8489 13.2115 40.1656 -0.0000 -0.0906 -0.0615 0.2294 3.0827 8.5092 0.0000 0.0000 0.0000 13.2576 -0.2927 -28.5850 -17.6734 -19.8697 83.1833 0.5646 -13.5381 -8.3729 -0.6304 -5.0804 14.1380 -0.0151 0.3599 18.0844 4.2952 0.7870 3.3819 4.4419 0.4200 -6.5544 -8.4595 -2.1349 -11.7657 2.3725 -1.7199 19.3032 2.0144 -1.2012 8.0221 -0.0000 -0.0000 0.0000 -81.7491 34.0150 44.9608 87.7966 -59.9816 -58.0919 -0.0000 0.0000 -17.8446 20.6150 4.4949 1.6886 -7.1250 0.0000 -0.0000 -4.9977 34.7466 1.2621 -0.0000 -0.0000 0.0000 77.8976 -19.3384 44.8526 -134.0455 51.2276 -97.0195 0.0000 -0.0000 -11.1412 -20.8961 27.1165 -9.8716 7.1250 -0.0000 -0.0000 5.4931 -1.3664 5.3855
0.00 0.00 0.00 0.7794 -2.3307 -8.8263 0.0000 0.0000 0.0000 -28.1454 -3.2480 -25.0094 11.8240 18.3153 65.4300 0.5960 -2.8179 -13.8936 0.2798 -3.4021 -9.4002 0.0000 0.0000 0.0000 7.0662 9.7495 -37.7312 -7.1231 -15.4347 49.3385 -0.0005 0.0159 -0.3967 -1.0208 6.4274 -18.0298 -4.2096 0.9829 18.2015 3.6256 0.7539 3.6468 6.1448 0.4693 -6.3630 -8.6627 -1.1329 -16.6947 1.6253 0.3841 20.5766 2.0437 -0.3219 9.2379 0.0000 0.0000 0.0000 -85.0119 17.7893 42.1746 71.8405 -58.7166 -44.3412 -0.0000 0.0000 -16.3004 24.5942 6.9158 3.1546 -7.1250 0.0000 -0.0000 -1.8625 37.5721 0.3407 0.0000 0.0000 0.0000 81.7580 -22.3212 43.0905 -120.5292 56.1673 -86.0989 0.0000 -0.0000 -15.2638 -22.0040 23.9091 -9.3013 7.1250 -0.0000 -0.0000 4.4714 -4.4913 4.1203
0.00 0.00 0.00 -1.7425 0.7636 -8.8668 0.0000 0.0000 0.0000 -23.9188 -3.2651 -27.8008 14.9520 19.3777 75.0920 -0.0854 -5.7453 -0.5577 0.5919 -4.9255 -13.6962 0.0000 0.0000 0.0000 8.0629 10.0669 -31.9843 -3.5397 -11.5213 34.0588 -0.2333 -1.5850 8.7069 -0.8201 5.7784 -16.1428 -3.2960 0.1601 18.5496 4.9179 -0.0713 4.0749 7.2316 0.0388 -5.9722 -8.1144 -1.1409 -16.3293 0.3620 0.4384 18.6338 1.5089 -0.3353 8.5107 -0.0000 -0.0000 0.0000 -84.9963 17.5772 44.3928 84.0713 -59.8668 -54.8679 -0.0000 0.0000 -20.9589 23.5320 6.0360 2.6218 -7.1250 0.0000 -0.0000 -2.6956 36.5472 0.5609 -0.0000 -0.0000 0.0000 80.3935 -22.6351 46.1506 -124.8788 54.8631 -89.6850 0.0000 -0.0000 -13.1616 -19.5171 26.1552 -8.8804 7.1250 -0.0000 -0.0000 6.2173 -2.5996 5.9646
0.00 0.00 0.00 -6.4078 12.8949 -10.4641 0.0000 0.0000 0.0000 -18.0493 -9.8694 -30.3003 17.5390 19.8542 82.7878 -0.2331 -8.5267 2.9021 0.3454 -3.7761 -10.4476 0.0000 0.0000 0.0000 8.6857 6.4348 -23.2929 -2.5932 -10.0054 28.9942 -0.1949 -6.5533 8.4935 -0.7277 5.4506 -15.1984 -0.3130 -2.7674 18.3830 6.2139 -3.2519 4.3830 7.6162 -1.5756 -5.1562 -7.8378 -1.7963 -15.3158 0.9540 -0.7737 17.2550 1.5157 -0.7887 7.9155 0.0000 -0.0000 0.0000 -81.6028 17.6498 50.8706 101.8900 -59.4590 -70.2783 -0.0000 0.0000 -17.7677 19.4721 6.3976 2.2561 -7.1250 0.0000 -0.0000 -6.1448 36.7016 1.2600 0.0000 -0.0000 0.0000 80.3687 -22.2488 49.1646 -128.6366 53.5308 -92.7332 0.0000 -0.0000 -11.2545 -18.9949 26.8078 -8.8245 7.1250 -0.0000 -0.0000 6.5962 -2.0217 6.4024
0.00 0.00 0.00 -8.8332 19.0166 -13.9382 0.0000 0.0000 0.0000 -16.0684 -8.6464 -35.1829 17.1866 19.8092 81.7491 -0.1014 -8.4430 -3.6184 0.3835 -3.9770 -11.0119 0.0000 0.0000 0.0000 10.4779 3.1387 -18.4602 -5.2777 -13.6899 42.0091 -0.1336 -1.0632 -7.3777 -1.9062 8.6678 -24.7617 0.4480 -1.6777 20.7155 6.2886 -1.5397 4.7007 6.9955 -0.6986 -6.2877 -6.6488 -2.6258 -13.9573 1.0259 -2.3075 17.0100 1.1845 -1.4267 7.6451 -0.0000 0.0000 0.0000 -77.1773 18.5189 56.2145 119.7100 -56.3867 -85.4175 -0.0000 0.0000 -14.9533 18.0956 3.5192 1.1491 -7.1250 0.0000 -0.0000 -6.9667 33.6214 1.9561 -0.0000 0.0000 0.0000 82.0051 -20.9280 50.2809 -128.9541 53.4087 -92.9883 0.0000 -0.0000 -9.4078 -20.0359 24.2830 -8.5292 7.1250 -0.0000 -0.0000 5.7208 -4.4377 5.2880
0.00 0.00 0.00 -11.9893 21.9303 -14.9470 0.0000 0.0000 0.0000 -19.2242 -5.1776 -38.8694 11.4355 18.1417 64.1881 0.0446 -6.1896 -5.4502 0.2181 -3.0066 -8.2972 0.0000 0.0000 0.0000 13.6158 -0.5528 -19.3292 -9.8325 -17.3146 58.9269 -0.2631 2.1560 -9.1804 -3.2040 11.0182 -32.3413 2.2020 0.2171 21.3596 7.8625 1.5562 4.4817 6.9502 0.8325 -7.2208 -6.9759 -2.8923 -13.5703 0.9771 -2.5954 18.1762 1.1941 -1.6034 7.9817 -0.0000 0.0000 0.0000 -82.0616 21.8120 51.4332 126.5287 -54.3031 -91.0295 -0.0000 0.0000 -19.3520 20.6030 7.4205 2.7797 -7.1250 0.0000 -0.0000 -5.3102 37.8526 0.9375 -0.0000 0.0000 0.0000 77.8925 -17.8734 48.9879 -119.0906 56.5474 -84.9012 0.0000 -0.0000 -7.0820 -18.4397 26.5232 -8.4688 7.1250 -0.0000 -0.0000 6.9015 -2.4058 6.6548
0.00 0.00 0.00 -9.5636 22.8248 -14.2091 0.0000 0.0000 0.0000 -25.5522 -4.0063 -35.6272 8.1386 16.2203 53.0604 -0.1317 -7.1200 -0.6801 0.1219 2.2508 6.1994 0.0000 0.0000 0.0000 8.1879 -0.9398 -22.4207 -12.7010 -18.6715 68.1941 0.2047 8.1909 4.9118 -1.9166 8.6902 -24.8308 1.9850 1.2202 21.0618 6.9050 2.6817 5.0381 5.6737 1.3642 -6.5333 -5.6831 -2.4920 -13.3514 1.0105 -2.3494 17.9528 1.0238 -1.3904 7.8347 0.0000 0.0000 0.0000 -83.3720 23.9387 48.6483 130.5500 -52.7713 -94.2644 -0.0000 0.0000 -22.5704 20.5965 7.0940 2.6573 -7.1250 0.0000 -0.0000 -5.2775 37.5059 0.9767 0.0000 0.0000 0.0000 76.8278 -16.9451 45.0788 -111.6831 58.1468 -78.6613 0.0000 -0.0000 -6.1598 -18.3816 27.5118 -8.7267 7.1250 -0.0000 -0.0000 7.0323 -1.4096 6.9098
0.00 0.00 0.00 -9.5603 23.0873 -13.6031 0.0000 0.0000 0.0000 -26.7032 -6.4304 -30.1727 11.7460 18.2812 65.1813 0.4036 -0.5858 -11.8095 0.3173 3.6210 10.0128 0.0000 0.0000 0.0000 3.9433 4.3693 -23.9790 -7.4582 -15.7059 50.5866 -0.0719 1.1168 -4.7952 -1.2352 7.0478 -19.8570 3.5830 1.2067 21.4692 7.3233 3.1382 4.3054 5.0984 1.5652 -7.5353 -5.7052 0.3949 -11.1316 0.2117 1.6625 18.4917 1.1793 0.4450 7.4840 -0.0000 -0.0000 0.0000 -84.4060 31.1431 42.9702 140.7353 -47.6282 -102.1059 -0.0000 0.0000 -24.1627 20.4344 4.1850 1.5575 -7.1250 0.0000 -0.0000 -5.1189 34.4099 1.3349 -0.0000 -0.0000 0.0000 70.5070 -19.4025 40.5091 -102.9953 59.3522 -71.2298 0.0000 -0.0000 -9.5972 -17.2468 26.1762 -7.7981 7.1250 -0.0000 -0.0000 7.5882 -2.9518 7.2522
0.00 0.00 0.00 -9.4147 24.4397 -11.9085 0.0000 0.0000 0.0000 -24.4617 -5.5218 -33.7746 15.1142 19.4178 75.5804 0.0966 -2.5500 -5.5415 0.0640 -1.6320 -4.4898 0.0000 0.0000 0.0000 2.8200 8.6459 -19.6550 -3.0467 -10.7703 31.5092 0.0193 4.0343 -1.9341 -2.5872 9.9948 -28.9597 3.8748 1.0278 21.0358 6.8481 2.8970 4.1719 4.4707 1.4350 -7.3933 -5.0733 1.1707 -12.8663 -0.2063 2.7918 18.4786 1.0636 0.9774 7.7684 0.0000 -0.0000 0.0000 -81.3424 29.0352 43.3936 139.6044 -48.3026 -101.2659 -0.0000 0.0000 -23.9937 20.7943 4.3467 1.6486 -7.1250 0.0000 -0.0000 -4.8370 34.5965 1.2390 0.0000 -0.0000 0.0000 71.8212 -19.0814 38.0784 -98.2498 59.7413 -67.1383 0.0000 -0.0000 -12.3845 -14.7410 24.6607 -6.2649 7.1250 -0.0000 -0.0000 9.0009 -4.8493 8.3132
